<svg width="473" height="59" viewBox="0 0 473 59" fill="none" xmlns="http://www.w3.org/2000/svg">
<path d="M0.83125 29.63C0.83125 25.04 1.51125 20.96 2.87125 17.39C4.23125 13.7633 6.10125 10.7033 8.48125 8.21C10.8613 5.71666 13.6663 3.81833 16.8963 2.515C20.1263 1.21166 23.5829 0.559997 27.2663 0.559997C30.8363 0.559997 33.9813 1.29666 36.7013 2.77C39.4779 4.18666 41.8013 5.80166 43.6713 7.615L36.7863 15.35C35.4829 14.16 34.0663 13.1967 32.5363 12.46C31.0063 11.7233 29.2496 11.355 27.2663 11.355C25.2829 11.355 23.4696 11.78 21.8263 12.63C20.1829 13.4233 18.7379 14.585 17.4913 16.115C16.3013 17.645 15.3663 19.515 14.6863 21.725C14.0063 23.935 13.6663 26.4283 13.6663 29.205C13.6663 34.9283 14.9696 39.3767 17.5763 42.55C20.1829 45.6667 23.5829 47.225 27.7763 47.225C29.7596 47.225 31.5446 46.7717 33.1313 45.865C34.7746 44.9583 36.2763 43.7683 37.6363 42.295L44.5213 49.86C39.8746 55.3 34.0379 58.02 27.0113 58.02C23.4413 58.02 20.0696 57.425 16.8963 56.235C13.7229 54.9883 10.9463 53.175 8.56625 50.795C6.18625 48.415 4.28792 45.4683 2.87125 41.955C1.51125 38.385 0.83125 34.2767 0.83125 29.63ZM52.563 1.58H65.058V36.94C65.058 40.2833 65.6814 42.8333 66.928 44.59C68.1747 46.3467 70.1297 47.225 72.793 47.225C75.4564 47.225 77.4114 46.3467 78.658 44.59C79.9614 42.8333 80.613 40.2833 80.613 36.94V1.58H92.683V35.665C92.683 42.9183 91.0397 48.4717 87.753 52.325C84.523 56.1217 79.5364 58.02 72.793 58.02C65.993 58.02 60.9214 56.1217 57.578 52.325C54.2347 48.4717 52.563 42.9183 52.563 35.665V1.58ZM107.185 1.58H119.68V46.46H144.33V57H107.185V1.58ZM155.347 1.58H175.577C178.58 1.58 181.385 1.89167 183.992 2.515C186.655 3.08166 188.95 4.07333 190.877 5.49C192.86 6.85 194.418 8.69167 195.552 11.015C196.685 13.2817 197.252 16.0867 197.252 19.43C197.252 22.66 196.657 25.465 195.467 27.845C194.333 30.225 192.775 32.18 190.792 33.71C188.808 35.24 186.513 36.3733 183.907 37.11C181.3 37.8467 178.523 38.215 175.577 38.215H167.842V57H155.347V1.58ZM174.812 28.27C181.555 28.27 184.927 25.3233 184.927 19.43C184.927 16.54 184.077 14.5 182.377 13.31C180.677 12.12 178.155 11.525 174.812 11.525H167.842V28.27H174.812ZM231.133 34.05L229.858 28.95C229.122 26.1733 228.385 23.2267 227.648 20.11C226.912 16.9933 226.175 13.99 225.438 11.1H225.098C224.418 14.0467 223.71 17.0783 222.973 20.195C222.237 23.255 221.5 26.1733 220.763 28.95L219.488 34.05H231.133ZM233.683 43.825H216.938L213.538 57H200.788L218.043 1.58H233.003L250.258 57H236.998L233.683 43.825Z" fill="#1D2C4D"/>
<path d="M264.79 49.125C264.79 47.875 264.99 46.725 265.39 45.675C265.84 44.575 266.44 43.625 267.19 42.825C267.94 42.025 268.84 41.4 269.89 40.95C270.99 40.5 272.19 40.275 273.49 40.275C274.79 40.275 275.965 40.5 277.015 40.95C278.115 41.4 279.04 42.025 279.79 42.825C280.54 43.625 281.115 44.575 281.515 45.675C281.965 46.725 282.19 47.875 282.19 49.125C282.19 51.625 281.39 53.725 279.79 55.425C278.19 57.075 276.09 57.9 273.49 57.9C270.89 57.9 268.79 57.075 267.19 55.425C265.59 53.725 264.79 51.625 264.79 49.125ZM301.886 19.8H327.836V57H316.811V28.425H301.886V19.8ZM321.836 14.325C319.686 14.325 317.911 13.725 316.511 12.525C315.161 11.325 314.486 9.7 314.486 7.65C314.486 5.6 315.161 3.95 316.511 2.7C317.911 1.4 319.686 0.749996 321.836 0.749996C323.986 0.749996 325.736 1.4 327.086 2.7C328.486 3.95 329.186 5.6 329.186 7.65C329.186 9.7 328.486 11.325 327.086 12.525C325.736 13.725 323.986 14.325 321.836 14.325ZM346.332 19.8H355.332L356.157 24.75H356.457C358.057 23.15 359.882 21.775 361.932 20.625C364.032 19.475 366.482 18.9 369.282 18.9C373.482 18.9 376.557 20.25 378.507 22.95C380.457 25.65 381.432 29.35 381.432 34.05V57H370.407V35.475C370.407 32.975 370.007 31.15 369.207 30C368.407 28.85 366.982 28.275 364.932 28.275C363.432 28.275 362.107 28.6 360.957 29.25C359.857 29.9 358.657 30.875 357.357 32.175V57H346.332V19.8ZM427.677 13.65C425.227 12.7 422.627 12.225 419.877 12.225C417.477 12.225 415.702 12.75 414.552 13.8C413.452 14.85 412.902 16.5 412.902 18.75V19.8H425.727V28.425H412.902V57H401.877V28.425H392.052V20.25L401.877 19.8V18.825C401.877 16.675 402.202 14.675 402.852 12.825C403.502 10.975 404.502 9.375 405.852 8.025C407.202 6.625 408.927 5.525 411.027 4.725C413.127 3.925 415.627 3.525 418.527 3.525C420.677 3.525 422.677 3.725 424.527 4.125C426.427 4.525 428.177 5 429.777 5.55L427.677 13.65ZM434.398 38.4C434.398 35.3 434.923 32.55 435.973 30.15C437.023 27.7 438.423 25.65 440.173 24C441.973 22.35 443.998 21.1 446.248 20.25C448.548 19.35 450.923 18.9 453.373 18.9C455.823 18.9 458.173 19.35 460.423 20.25C462.723 21.1 464.748 22.35 466.498 24C468.298 25.65 469.723 27.7 470.773 30.15C471.823 32.55 472.348 35.3 472.348 38.4C472.348 41.5 471.823 44.275 470.773 46.725C469.723 49.125 468.298 51.15 466.498 52.8C464.748 54.45 462.723 55.725 460.423 56.625C458.173 57.475 455.823 57.9 453.373 57.9C450.923 57.9 448.548 57.475 446.248 56.625C443.998 55.725 441.973 54.45 440.173 52.8C438.423 51.15 437.023 49.125 435.973 46.725C434.923 44.275 434.398 41.5 434.398 38.4ZM445.723 38.4C445.723 41.65 446.348 44.225 447.598 46.125C448.898 48.025 450.823 48.975 453.373 48.975C455.923 48.975 457.823 48.025 459.073 46.125C460.373 44.225 461.023 41.65 461.023 38.4C461.023 35.15 460.373 32.575 459.073 30.675C457.823 28.775 455.923 27.825 453.373 27.825C450.823 27.825 448.898 28.775 447.598 30.675C446.348 32.575 445.723 35.15 445.723 38.4Z" fill="#82B7E8"/>
</svg>
