<svg width="94" height="81" viewBox="0 0 94 81" fill="none" xmlns="http://www.w3.org/2000/svg">
<path d="M42.5701 78.9167L65.6117 55.8333C67.1534 54.2917 68.0284 52.1667 68.0284 49.9583V8.33333C68.0284 3.75 64.2784 0 59.6951 0H22.2367C18.9034 0 15.9034 2 14.6117 5.04167L1.02839 36.75C-2.51328 45 3.52839 54.1667 12.4867 54.1667H36.0284L32.0701 73.25C31.6534 75.3333 32.2784 77.4583 33.7784 78.9583C36.2367 81.375 40.1534 81.375 42.5701 78.9167ZM84.7367 0C80.1534 0 76.4034 3.75 76.4034 8.33333V41.6667C76.4034 46.25 80.1534 50 84.7367 50C89.3201 50 93.0701 46.25 93.0701 41.6667V8.33333C93.0701 3.75 89.3201 0 84.7367 0Z" fill="#82B7E8"/>
</svg>
