<svg width="94" height="82" viewBox="0 0 94 82" fill="none" xmlns="http://www.w3.org/2000/svg">
<path d="M50.9038 2.57555L27.8205 25.6589C26.2788 27.2006 25.4038 29.3256 25.4038 31.5339V73.1589C25.4038 77.7422 29.1538 81.4922 33.7371 81.4922H71.2371C74.5705 81.4922 77.5705 79.4922 78.9038 76.4506L92.4871 44.7422C95.9871 36.4922 89.9455 27.3256 80.9871 27.3256H57.4455L61.4038 8.24222C61.8205 6.15889 61.1955 4.03389 59.6955 2.53389C57.2371 0.117221 53.3205 0.117221 50.9038 2.57555V2.57555ZM8.73714 81.4922C13.3205 81.4922 17.0705 77.7422 17.0705 73.1589V39.8256C17.0705 35.2422 13.3205 31.4922 8.73714 31.4922C4.15381 31.4922 0.403809 35.2422 0.403809 39.8256V73.1589C0.403809 77.7422 4.15381 81.4922 8.73714 81.4922Z" fill="#82B7E8"/>
</svg>
