<svg width="237" height="31" viewBox="0 0 237 31" fill="none" xmlns="http://www.w3.org/2000/svg">
<path d="M0.553125 15.51C0.553125 13.08 0.913125 10.92 1.63313 9.03C2.35313 7.11 3.34313 5.49 4.60313 4.17C5.86313 2.85 7.34813 1.845 9.05813 1.155C10.7681 0.464998 12.5981 0.119998 14.5481 0.119998C16.4381 0.119998 18.1031 0.509999 19.5431 1.29C21.0131 2.04 22.2431 2.895 23.2331 3.855L19.5881 7.95C18.8981 7.32 18.1481 6.81 17.3381 6.42C16.5281 6.03 15.5981 5.835 14.5481 5.835C13.4981 5.835 12.5381 6.06 11.6681 6.51C10.7981 6.93 10.0331 7.545 9.37313 8.355C8.74313 9.165 8.24813 10.155 7.88813 11.325C7.52813 12.495 7.34813 13.815 7.34813 15.285C7.34813 18.315 8.03813 20.67 9.41813 22.35C10.7981 24 12.5981 24.825 14.8181 24.825C15.8681 24.825 16.8131 24.585 17.6531 24.105C18.5231 23.625 19.3181 22.995 20.0381 22.215L23.6831 26.22C21.2231 29.1 18.1331 30.54 14.4131 30.54C12.5231 30.54 10.7381 30.225 9.05813 29.595C7.37813 28.935 5.90813 27.975 4.64813 26.715C3.38813 25.455 2.38313 23.895 1.63313 22.035C0.913125 20.145 0.553125 17.97 0.553125 15.51ZM27.9405 0.66H34.5555V19.38C34.5555 21.15 34.8855 22.5 35.5455 23.43C36.2055 24.36 37.2405 24.825 38.6505 24.825C40.0605 24.825 41.0955 24.36 41.7555 23.43C42.4455 22.5 42.7905 21.15 42.7905 19.38V0.66H49.1805V18.705C49.1805 22.545 48.3105 25.485 46.5705 27.525C44.8605 29.535 42.2205 30.54 38.6505 30.54C35.0505 30.54 32.3655 29.535 30.5955 27.525C28.8255 25.485 27.9405 22.545 27.9405 18.705V0.66ZM56.858 0.66H63.473V24.42H76.523V30H56.858V0.66ZM82.3554 0.66H93.0654C94.6554 0.66 96.1404 0.824999 97.5204 1.155C98.9304 1.455 100.145 1.98 101.165 2.73C102.215 3.45 103.04 4.425 103.64 5.655C104.24 6.855 104.54 8.34 104.54 10.11C104.54 11.82 104.225 13.305 103.595 14.565C102.995 15.825 102.17 16.86 101.12 17.67C100.07 18.48 98.8554 19.08 97.4754 19.47C96.0954 19.86 94.6254 20.055 93.0654 20.055H88.9704V30H82.3554V0.66ZM92.6604 14.79C96.2304 14.79 98.0154 13.23 98.0154 10.11C98.0154 8.58 97.5654 7.5 96.6654 6.87C95.7654 6.24 94.4304 5.925 92.6604 5.925H88.9704V14.79H92.6604ZM122.478 17.85L121.803 15.15C121.413 13.68 121.023 12.12 120.633 10.47C120.243 8.82 119.853 7.23 119.463 5.7H119.283C118.923 7.26 118.548 8.865 118.158 10.515C117.768 12.135 117.378 13.68 116.988 15.15L116.313 17.85H122.478ZM123.828 23.025H114.963L113.163 30H106.413L115.548 0.66H123.468L132.603 30H125.583L123.828 23.025Z" fill="white"/>
<path d="M139.43 26.325C139.43 25.7417 139.524 25.205 139.71 24.715C139.92 24.2017 140.2 23.7583 140.55 23.385C140.9 23.0117 141.32 22.72 141.81 22.51C142.324 22.3 142.884 22.195 143.49 22.195C144.097 22.195 144.645 22.3 145.135 22.51C145.649 22.72 146.08 23.0117 146.43 23.385C146.78 23.7583 147.049 24.2017 147.235 24.715C147.445 25.205 147.55 25.7417 147.55 26.325C147.55 27.4917 147.177 28.4717 146.43 29.265C145.684 30.035 144.704 30.42 143.49 30.42C142.277 30.42 141.297 30.035 140.55 29.265C139.804 28.4717 139.43 27.4917 139.43 26.325ZM156.742 12.64H168.852V30H163.707V16.665H156.742V12.64ZM166.052 10.085C165.048 10.085 164.22 9.805 163.567 9.245C162.937 8.685 162.622 7.92667 162.622 6.97C162.622 6.01333 162.937 5.24333 163.567 4.66C164.22 4.05333 165.048 3.75 166.052 3.75C167.055 3.75 167.872 4.05333 168.502 4.66C169.155 5.24333 169.482 6.01333 169.482 6.97C169.482 7.92667 169.155 8.685 168.502 9.245C167.872 9.805 167.055 10.085 166.052 10.085ZM177.483 12.64H181.683L182.068 14.95H182.208C182.955 14.2033 183.806 13.5617 184.763 13.025C185.743 12.4883 186.886 12.22 188.193 12.22C190.153 12.22 191.588 12.85 192.498 14.11C193.408 15.37 193.863 17.0967 193.863 19.29V30H188.718V19.955C188.718 18.7883 188.531 17.9367 188.158 17.4C187.785 16.8633 187.12 16.595 186.163 16.595C185.463 16.595 184.845 16.7467 184.308 17.05C183.795 17.3533 183.235 17.8083 182.628 18.415V30H177.483V12.64ZM215.444 9.77C214.301 9.32667 213.088 9.105 211.804 9.105C210.684 9.105 209.856 9.35 209.319 9.84C208.806 10.33 208.549 11.1 208.549 12.15V12.64H214.534V16.665H208.549V30H203.404V16.665H198.819V12.85L203.404 12.64V12.185C203.404 11.1817 203.556 10.2483 203.859 9.385C204.163 8.52167 204.629 7.775 205.259 7.145C205.889 6.49166 206.694 5.97833 207.674 5.605C208.654 5.23166 209.821 5.045 211.174 5.045C212.178 5.045 213.111 5.13833 213.974 5.325C214.861 5.51167 215.678 5.73333 216.424 5.99L215.444 9.77ZM218.581 21.32C218.581 19.8733 218.826 18.59 219.316 17.47C219.806 16.3267 220.459 15.37 221.276 14.6C222.116 13.83 223.061 13.2467 224.111 12.85C225.184 12.43 226.292 12.22 227.436 12.22C228.579 12.22 229.676 12.43 230.726 12.85C231.799 13.2467 232.744 13.83 233.561 14.6C234.401 15.37 235.066 16.3267 235.556 17.47C236.046 18.59 236.291 19.8733 236.291 21.32C236.291 22.7667 236.046 24.0617 235.556 25.205C235.066 26.325 234.401 27.27 233.561 28.04C232.744 28.81 231.799 29.405 230.726 29.825C229.676 30.2217 228.579 30.42 227.436 30.42C226.292 30.42 225.184 30.2217 224.111 29.825C223.061 29.405 222.116 28.81 221.276 28.04C220.459 27.27 219.806 26.325 219.316 25.205C218.826 24.0617 218.581 22.7667 218.581 21.32ZM223.866 21.32C223.866 22.8367 224.157 24.0383 224.741 24.925C225.347 25.8117 226.246 26.255 227.436 26.255C228.626 26.255 229.512 25.8117 230.096 24.925C230.702 24.0383 231.006 22.8367 231.006 21.32C231.006 19.8033 230.702 18.6017 230.096 17.715C229.512 16.8283 228.626 16.385 227.436 16.385C226.246 16.385 225.347 16.8283 224.741 17.715C224.157 18.6017 223.866 19.8033 223.866 21.32Z" fill="#82B7E8"/>
</svg>
