<svg width="94" height="82" viewBox="0 0 94 82" fill="none" xmlns="http://www.w3.org/2000/svg">
<path d="M43.3332 79.4167L66.3749 56.3333C67.9166 54.7917 68.7916 52.6667 68.7916 50.4583V8.83333C68.7916 4.25 65.0416 0.5 60.4582 0.5H22.9999C19.6666 0.5 16.6666 2.5 15.3749 5.54167L1.79157 37.25C-1.75009 45.5 4.29157 54.6667 13.2499 54.6667H36.7916L32.8332 73.75C32.4166 75.8333 33.0416 77.9583 34.5416 79.4583C36.9999 81.875 40.9166 81.875 43.3332 79.4167ZM85.4999 0.5C80.9166 0.5 77.1666 4.25 77.1666 8.83333V42.1667C77.1666 46.75 80.9166 50.5 85.4999 50.5C90.0832 50.5 93.8332 46.75 93.8332 42.1667V8.83333C93.8332 4.25 90.0832 0.5 85.4999 0.5Z" fill="white"/>
</svg>
