<svg width="530" height="505" viewBox="0 0 530 505" fill="none" xmlns="http://www.w3.org/2000/svg">
<path d="M69.6755 143.218L0 254.443L113.405 371.051L301.733 330.089L413.68 156.972H390.066L288.905 242.484L324.18 147.703L236.722 151.291L244.301 98.0699L69.6755 143.218Z" fill="#53575B"/>
<path d="M502.013 98.0699L470.237 27.8064H413.68L432.629 62.7886L422.426 77.4393L442.25 108.535L470.237 143.218L422.426 151.291L496.183 162.652L502.013 98.0699Z" fill="#53575B"/>
<path d="M216.023 15.2487L69.6755 143.218L244.301 98.0699L236.722 151.291L324.18 147.703L288.905 242.484L390.066 156.972H413.68L301.733 330.089L113.405 371.051L0 254.443L102.618 371.051L131.48 427.262L139.351 497.824L136.144 427.262L118.361 378.227L301.733 340.554L309.895 371.051L334.675 393.475L470.237 334.275L502.013 223.946L496.183 162.652V223.946L470.237 330.089L334.675 391.083L315.143 371.051L309.895 334.275L422.426 160.56L496.183 162.652L422.426 151.291L362.662 0L216.023 15.2487Z" fill="#53575B"/>
<path d="M470.237 27.8064L362.662 0L422.426 151.291L470.237 143.218L442.25 108.535L422.426 77.4393L432.629 62.7886L413.68 27.8064H470.237Z" fill="#53575B"/>
<path d="M496.183 162.652L422.426 160.56L309.895 334.275L399.978 242.484L432.629 254.443L496.183 162.652Z" fill="#53575B"/>
<path d="M496.183 223.946V162.652L432.629 254.443L399.978 242.484L309.895 334.275L315.143 371.051L334.675 391.083L470.237 330.089L496.183 223.946Z" fill="#53575B"/>
<path d="M502.013 98.0699L496.183 162.652L502.013 223.946L470.237 334.275L334.675 393.475L309.895 371.051L301.733 340.554L118.361 378.227L136.144 427.262L139.351 497.824L253.047 505L386.568 484.668L442.25 433.541L520.963 223.946L530 177.004L502.013 98.0699Z" fill="#53575B"/>
<path d="M139.351 497.824L131.48 427.262L102.618 371.051L93.2893 427.262L69.6755 433.541L51.8922 408.724L45.4785 415.601L9.91199 378.227L35.8581 443.706L139.351 497.824Z" fill="#53575B"/>
<path d="M102.618 371.051L0 254.443L9.91199 378.227L45.4785 415.601L51.8922 408.724L69.6755 433.541L93.2893 427.262L102.618 371.051Z" fill="#53575B"/>
<path d="M216.023 15.2487L69.6755 143.218L244.301 98.0699L236.722 151.291L324.18 147.703L288.905 242.484L390.066 156.972H413.68L301.733 330.089L113.405 371.051L0 254.443L102.618 371.051L131.48 427.262L139.351 497.824L136.144 427.262L118.361 378.227L301.733 340.554L309.895 371.051L334.675 393.475L470.237 334.275L502.013 223.946L496.183 162.652V223.946L470.237 330.089L334.675 391.083L315.143 371.051L309.895 334.275L422.426 160.56L496.183 162.652L422.426 151.291L362.662 0L216.023 15.2487Z" fill="#A1AAAF"/>
<path d="M496.183 162.652L422.426 160.56L309.895 334.275L399.978 242.484L432.629 254.443L496.183 162.652Z" fill="#A1AAAF"/>
<path d="M69.6755 143.218L0 254.443L113.405 371.051L301.733 330.089L413.68 156.972H390.066L288.905 242.484L324.18 147.703L236.722 151.291L244.301 98.0699L69.6755 143.218Z" fill="#A1AAAF"/>
<path d="M502.013 98.0699L470.237 27.8064H413.68L432.629 62.7886L422.426 77.4393L442.25 108.535L470.237 143.218L422.426 151.291L496.183 162.652L502.013 98.0699Z" fill="#A1AAAF"/>
<path d="M216.023 15.2487L69.6755 143.218L244.301 98.0699L236.722 151.291L324.18 147.703L288.905 242.484L390.066 156.972H413.68L301.733 330.089L113.405 371.051L0 254.443L102.618 371.051L131.48 427.262L139.351 497.824L136.144 427.262L118.361 378.227L301.733 340.554L309.895 371.051L334.675 393.475L470.237 334.275L502.013 223.946L496.183 162.652V223.946L470.237 330.089L334.675 391.083L315.143 371.051L309.895 334.275L422.426 160.56L496.183 162.652L422.426 151.291L362.662 0L216.023 15.2487Z" fill="#D5DCE2"/>
<path d="M496.183 162.652L422.426 160.56L309.895 334.275L399.978 242.484L432.629 254.443L496.183 162.652Z" fill="#D5DCE2"/>
<path d="M496.183 162.652L422.426 160.56L309.895 334.275L399.978 242.484L432.629 254.443L496.183 162.652Z" fill="#7A8386"/>
<path fill-rule="evenodd" clip-rule="evenodd" d="M136.144 427.262L190.077 433.541L259.752 408.724L279.285 393.475L324.18 415.601L334.675 393.475L309.895 371.051L301.733 340.554L118.361 378.227L136.144 427.262Z" fill="#7A8386"/>
</svg>
