<svg width="100" height="100" viewBox="0 0 100 100" fill="none" xmlns="http://www.w3.org/2000/svg">
<path d="M54.667 8.57555L31.5837 31.6589C30.042 33.2006 29.167 35.3256 29.167 37.5339V79.1589C29.167 83.7422 32.917 87.4922 37.5003 87.4922H75.0003C78.3337 87.4922 81.3337 85.4922 82.667 82.4506L96.2503 50.7422C99.7503 42.4922 93.7087 33.3256 84.7503 33.3256H61.2087L65.167 14.2422C65.5837 12.1589 64.9587 10.0339 63.4587 8.53389C61.0003 6.11722 57.0837 6.11722 54.667 8.57555ZM12.5003 87.4922C17.0837 87.4922 20.8337 83.7422 20.8337 79.1589V45.8256C20.8337 41.2422 17.0837 37.4922 12.5003 37.4922C7.91699 37.4922 4.16699 41.2422 4.16699 45.8256V79.1589C4.16699 83.7422 7.91699 87.4922 12.5003 87.4922Z" fill="white"/>
</svg>
